<svg width="34" height="34" viewBox="0 0 34 34" fill="none" xmlns="http://www.w3.org/2000/svg">
<path d="M7.09275 15.0358L21.3205 0.829173C21.8445 0.276315 22.4988 0 23.2847 0C24.0706 0 24.7249 0.27662 25.2489 0.829173L26.9074 2.46612C27.4458 3.00445 27.715 3.65882 27.715 4.4299C27.715 5.18638 27.4459 5.84855 26.9074 6.41577L16.3017 17L26.9078 27.6061C27.4461 28.1444 27.7153 28.7988 27.7153 29.5699C27.7153 30.3264 27.4462 30.9887 26.9078 31.5557L25.2492 33.1925C24.7108 33.7308 24.0559 33.9999 23.285 33.9999C22.5139 33.9999 21.859 33.7308 21.3209 33.1925L7.09275 18.9858C6.55418 18.4185 6.28474 17.7564 6.28474 17C6.28467 16.2289 6.55418 15.5741 7.09275 15.0358Z" fill="#E5E5E5"/>
</svg>
