<svg width="80" height="80" viewBox="0 0 80 80" fill="none" xmlns="http://www.w3.org/2000/svg">
<path d="M40 80C62.0914 80 80 62.0914 80 40C80 17.9086 62.0914 0 40 0C17.9086 0 0 17.9086 0 40C0 62.0914 17.9086 80 40 80Z" fill="#4176FA"/>
<path d="M54.3399 33.043C42.7866 33.043 42.7716 44.5529 42.7716 44.612C42.7716 44.612 41.9801 56.1362 54.3399 56.1362C54.3399 56.1362 64.6476 56.7223 64.6476 48.1159H59.3547C59.3547 48.1159 59.5301 51.356 54.516 51.356C54.516 51.356 49.2231 51.7082 49.2231 46.1215H64.8237C64.8237 46.1215 66.5393 33.043 54.3399 33.043ZM49.164 42.0893C49.164 42.0893 49.8093 37.456 54.4576 37.456C59.1201 37.456 59.0467 42.0893 59.0467 42.0893H49.164ZM35.94 39.1281C35.94 39.1281 40.5291 38.7908 40.5291 33.3952C40.5291 28.0147 36.7756 25.375 32.0104 25.375H16.3357V55.5051H32.009C32.009 55.5051 41.5837 55.7989 41.5837 46.6057C41.5844 46.6057 41.9951 39.1281 35.94 39.1281ZM23.2422 30.7263H32.0097C32.0097 30.7263 34.136 30.7263 34.136 33.8637C34.136 37.0011 32.8896 37.456 31.4671 37.456H23.2422V30.7263ZM31.5705 50.1538H23.2422V42.0893H32.0097C32.0097 42.0893 35.192 42.0601 35.177 46.2385C35.177 49.758 32.8169 50.1245 31.5705 50.1538ZM47.8591 27.149V30.859H60.2931V27.149H47.8591Z" fill="#F1F2F2"/>
</svg>
