<svg width="80" height="80" viewBox="0 0 80 80" fill="none" xmlns="http://www.w3.org/2000/svg">
<g clip-path="url(#clip0)">
<path d="M40 79.999C62.0914 79.999 80 62.0904 80 39.999C80 17.9076 62.0914 -0.000976562 40 -0.000976562C17.9086 -0.000976562 0 17.9076 0 39.999C0 62.0904 17.9086 79.999 40 79.999Z" fill="#007AB9"/>
<path d="M63.8996 43.218V59.7091H54.3385V44.3232C54.3385 40.4599 52.958 37.8217 49.4962 37.8217C46.8544 37.8217 45.285 39.5979 44.592 41.3177C44.3403 41.9323 44.2754 42.7859 44.2754 43.6479V59.7084H34.7135C34.7135 59.7084 34.8419 33.6497 34.7135 30.9523H44.2761V35.0273C44.2568 35.0594 44.2297 35.0907 44.2126 35.1214H44.2761V35.0273C45.5467 33.0721 47.8128 30.277 52.8932 30.277C59.1836 30.277 63.8996 34.387 63.8996 43.218ZM24.711 17.0908C21.4403 17.0908 19.3005 19.2378 19.3005 22.0586C19.3005 24.8194 21.3783 27.0284 24.5855 27.0284H24.6476C27.9825 27.0284 30.056 24.8194 30.056 22.0586C29.9925 19.2378 27.9825 17.0908 24.711 17.0908ZM19.8688 59.7091H29.4271V30.9523H19.8688V59.7091Z" fill="#F1F2F2"/>
</g>
<defs>
<clipPath id="clip0">
<rect width="80" height="80" fill="white"/>
</clipPath>
</defs>
</svg>
